# xmcd CD database file
#
# Track frame offsets:
#	150
#	19125
#	37071
#	64257
#	80580
#	113428
#
# Disc length: 2708 seconds
#
# Revision: 2
# Processed by: cddbd v1.4PL0 Copyright (c) Steve Scherf et al.
# Submitted via: CDex 1.50Beta6
#
DISCID=470a9206
DTITLE=Shania Twain - Don't Be Stupid
DYEAR=2000
DGENRE=Pop
TTITLE0=Don't Be Stupid (Dance Mix Single)
TTITLE1=Man! I Feel Like A Woman (Live)
TTITLE2=You've Got A Way (Love To Infinity's Soul Classic)
TTITLE3=Don't Be Stupid (LP Version)
TTITLE4=Don't Be Stupid (Dance Mix Full Length)
TTITLE5=Don't Be Stupid (Video)
EXTD=YEAR: 2000
EXTT0=
EXTT1=
EXTT2=
EXTT3=
EXTT4=
EXTT5=
PLAYORDER=
